<svg id="Layer_1" data-name="Layer 1" xmlns="http://www.w3.org/2000/svg" viewBox="0 0 600 350">
  <defs>
    <style>
      .logo-svg {
        fill: #fff;
      }
    </style>
  </defs>
  <title>dubbs-logo-02</title>
  <path class="logo-svg" d="M592.1,10.6V341.1h-243a271.2,271.2,0,0,0,27.8-44.5q25.5-51.5,25.6-119.2,0-76.4-26.4-129.8a246.6,246.6,0,0,0-22.2-37ZM11.4,341.1H75.1c28.4,0,54.7-2.9,79.1-8.7s45.5-15.3,63.4-28.7,31.8-30.9,42.1-52.7S275,202.6,275,171.1c0-27.2-5.1-51-15.3-71.2s-24-36.8-41.4-49.9-37.6-23-60.9-29.5a269.7,269.7,0,0,0-73.6-9.9H11.4Z"/>
</svg>
